<svg id="Layer_10" data-name="Layer 10" xmlns="http://www.w3.org/2000/svg" viewBox="0 0 192 192"><defs><style>.cls-1{fill:#e30613;}.cls-2{fill:none;stroke:#fff;stroke-miterlimit:10;stroke-width:4.43px;}.cls-3{fill:#fff;}</style></defs><title>ic_material_product_icon_192px</title><rect class="cls-1" x="19.72" y="20.03" width="152" height="152" rx="12" ry="12"/><path class="cls-2" d="M107.22,139V109.76H114c10.5,0,19-10,19-22.35V50.82c0-12.31-8.54-22.32-19-22.32H48c-10.5,0-19,10-19,22.32V87.41c0,12.33,8.54,22.35,19,22.35H82.28Z"/><path class="cls-3" d="M56.74,84.72c2.34,1.31,3.13,4.72,2.07,8.92l2.42.61c1.06-4.19,3.39-6.82,6.06-6.86s5.07,2.53,6.25,6.69l1.2-.34L76,93.4c-1.18-4.16-.49-7.6,1.81-9s5.66-.35,8.76,2.67l.87-.89.87-.9c-3.1-3-4.22-6.34-2.91-8.68s4.72-3.13,8.92-2.06l.61-2.43c-4.2-1.06-6.83-3.38-6.86-6.06s2.53-5.07,6.69-6.25L94,57.43c-4.17,1.17-7.6.48-9-1.82s-.35-5.65,2.67-8.76l-.9-.87-.89-.87c-3,3.1-6.35,4.22-8.68,2.91s-3.13-4.72-2.07-8.92l-2.42-.61c-1.06,4.2-3.38,6.83-6.06,6.86s-5.07-2.52-6.25-6.69l-2.41.68c1.18,4.16.49,7.61-1.81,9s-5.66.35-8.76-2.67l-1.74,1.79c3.1,3,4.22,6.34,2.91,8.68s-4.72,3.13-8.92,2.07l-.3,1.21-.31,1.21C43.32,61.66,46,64,46,66.66s-2.53,5.07-6.69,6.25l.34,1.2.34,1.2c4.17-1.18,7.6-.48,9,1.82s.35,5.65-2.67,8.76l1.79,1.74C51.08,84.53,54.41,83.41,56.74,84.72Z"/><circle class="cls-1" cx="73.86" cy="60.98" r="7.12"/><path class="cls-1" d="M55.73,75.5a4.9,4.9,0,1,1,5,4.84A4.9,4.9,0,0,1,55.73,75.5Z"/><circle class="cls-3" cx="114.64" cy="69.74" r="7.63"/><circle class="cls-3" cx="103" cy="92" r="5.99"/><path class="cls-3" d="M162.9,162.25C157.23,164,148.39,165,139,165s-18.23-1-23.9-2.7v-3.73c0-6.72,10.69-12.16,23.9-12.16s23.9,5.44,23.9,12.16Z"/><path class="cls-3" d="M139,110.05a17.06,17.06,0,1,1-17,17.11A17,17,0,0,1,139,110.05Z"/></svg>