<?xml version="1.0" encoding="utf-8"?>
<!-- Generator: Adobe Illustrator 22.0.1, SVG Export Plug-In . SVG Version: 6.00 Build 0)  -->
<svg version="1.1" id="Layer_1" xmlns="http://www.w3.org/2000/svg" xmlns:xlink="http://www.w3.org/1999/xlink" x="0px" y="0px"
	 viewBox="0 0 48 48" style="enable-background:new 0 0 48 48;" xml:space="preserve">
<g transform="translate(0,-952.36218)">
	<path d="M45.1,954.7c-0.6,0-1.2,0.3-1.6,0.8c-6.2,6.5-16.1,17.4-22.7,24.4l-8.3-6.3c-1-0.8-2.6-0.6-3.3,0.4c-0.8,1-0.5,2.6,0.4,3.3
		l10,7.7c0.9,0.7,2.4,0.6,3.1-0.2c6.6-6.9,17.6-19.1,24.1-25.9c0.7-0.7,0.9-1.8,0.5-2.6S46,954.7,45.1,954.7z M0.4,961.8v31.8
		c0,1.2,1.1,2.4,2.4,2.4h33c1.2,0,2.4-1.1,2.4-2.4v-15.3c0-1.2-1.1-2.4-2.4-2.4c-1.2,0-2.4,1.1-2.4,2.4v12.9H5.2v-27.1h24.7
		c1.2,0,2.4-1.1,2.4-2.4c0-1.2-1.1-2.4-2.4-2.4H2.8C1.5,959.5,0.5,960.9,0.4,961.8z"/>
</g>
</svg>
