<?xml version="1.0" encoding="utf-8"?>
<!-- Generator: Adobe Illustrator 22.0.1, SVG Export Plug-In . SVG Version: 6.00 Build 0)  -->
<svg version="1.1" id="Layer_1" xmlns="http://www.w3.org/2000/svg" xmlns:xlink="http://www.w3.org/1999/xlink" x="0px" y="0px"
	 viewBox="0 0 48 48" style="enable-background:new 0 0 48 48;" xml:space="preserve">
<path d="M43.4,22.2c0.9,0,1.7,0.7,1.7,1.7c0,0.9-0.7,1.7-1.7,1.7s-1.7-0.7-1.7-1.7C41.7,23,42.5,22.2,43.4,22.2z M38.6,7.9
	c0.6,0,1.2,0.2,1.7,0.7c0.9,0.9,0.9,2.4,0,3.2c-0.9,0.9-2.4,0.9-3.2,0c-0.4-0.4-0.7-1-0.7-1.7C36.2,9.6,37,7.8,38.6,7.9z M13,12.1
	c-0.6,0.6-1.7,0.6-2.2,0c-0.6-0.6-0.6-1.7,0-2.2c0.3-0.3,0.7-0.4,1.2-0.4s0.8,0.1,1.2,0.4C13.5,10.4,13.5,11.4,13,12.1z M5.5,26.2
	c-1.3,0-2.2-1-2.2-2.2c0-1.3,1-2.2,2.2-2.2s2.2,1,2.2,2.2C7.7,25.2,6.7,26.2,5.5,26.2z M13,38.2c-0.6,0.6-1.7,0.6-2.3,0
	c-0.6-0.6-0.6-1.7,0-2.3c0.3-0.3,0.7-0.5,1.2-0.5c0.4,0,0.9,0.1,1.2,0.5C13.6,36.5,13.6,37.6,13,38.2z M37,36.1
	c0.4-0.4,1.1-0.7,1.7-0.7s1.3,0.3,1.7,0.7c0.9,0.9,0.9,2.4,0,3.4c-0.9,0.9-2.4,0.9-3.4,0C36,38.6,36,37.1,37,36.1z M23.2,4.7
	C23.2,3.8,24,3,24.9,3s1.7,0.8,1.7,1.7s-0.8,1.7-1.7,1.7C23.9,6.4,23.2,5.6,23.2,4.7z M26.5,43.3c0,0.9-0.8,1.7-1.7,1.7
	s-1.7-0.8-1.7-1.7s0.8-1.7,1.7-1.7C25.8,41.6,26.5,42.3,26.5,43.3z M30.1,29.1C30,29.1,30,29.1,30.1,29.1C30,29.2,30,29.2,30.1,29.1
	c-1.4,1.4-3.1,2.2-5.2,2.2c-6-0.7-7.6-5.3-7.4-7.2V24v-0.1c0.3-6,5.3-7.2,7.2-7.3c0.1,0,3.2-0.2,5.5,2.3
	C31.4,20.2,33.8,24.8,30.1,29.1z M35.4,25.7l3.9,0c0.1,0,0.2,0,0.2,0c0.7,1.5,2.2,2.6,3.9,2.6c2.4,0,4.2-1.9,4.2-4.2
	s-1.9-4.2-4.2-4.2c-1.8,0-3.2,1.1-3.9,2.6c-0.1,0-0.2,0-0.2,0c0,0-2.5,0-3.9,0c-0.3-1.7-0.9-3.3-1.9-4.6l2.8-2.7
	c0,0,0.1-0.1,0.1-0.1c1.3,0.6,3.7,1.1,5.9-1c2.1-2.1,2.1-5.3,0-7.4c-3.1-2.9-6.4-1-7.4,0c-2.2,2.5-1.5,4.9-0.9,6.1c0,0,0,0,0,0
	c0,0-2,1.9-2.9,2.8c-1.3-1-2.9-1.7-4.6-2c0,0,0,0,0,0l0-4.7c1.5-0.7,2.6-2.2,2.6-4c0-2.4-2-4.3-4.3-4.3c-2.3,0-4.3,2-4.3,4.3
	c0,1.9,1.2,3.3,2.7,4c0,0.6-0.1,4.8,0,4.7c0,0,0,0,0,0c-1.7,0.3-3.3,1-4.6,2l-2.9-2.8C16.3,11,16,9.2,14.8,8c-0.8-0.8-1.9-1.2-3-1.2
	c-1.1,0-2.2,0.4-3,1.2c-1.6,1.6-1.6,4.2,0,5.9c0.8,0.8,1.9,1.2,3,1.2c0.5,0,1-0.1,1.5-0.3c0.5,0.5,2.3,2.2,3,2.9
	c-1,1.3-1.6,2.9-1.9,4.6c-1.3,0-4.3,0-4.1,0c0,0,0,0,0,0c-0.7-2-2.6-3.4-4.8-3.4c-2.9,0-5.1,2.3-5.1,5.1s2.3,5.1,5.1,5.1
	c2.3,0,4.1-1.5,4.8-3.5l4.1,0c0.3,1.7,1,3.3,2.1,4.7c-0.8,0.8-2.8,2.7-3.1,3c-0.5-0.2-1.1-0.4-1.7-0.4c-1.2,0-2.2,0.5-3.1,1.3
	c-1.7,1.7-1.7,4.3,0,6c0.8,0.8,1.9,1.3,3.1,1.3s2.2-0.5,3.1-1.3c1.2-1.2,1.5-3.1,0.9-4.6l3.1-3c1.3,0.9,2.9,1.6,4.6,1.9
	c0,0.3-0.1,4.9,0,4.7c0,0,0,0,0,0.1c-1.6,0.7-2.7,2.2-2.7,4c0,2.4,2,4.3,4.3,4.3s4.3-2,4.3-4.3c0-1.8-1.1-3.4-2.6-4c0,0,0,0,0,0
	l0-4.8c0,0,0,0,0,0c1.7-0.3,3.2-1,4.5-1.9c1,1,2.8,2.9,2.7,2.8c0.1,0.1,0.1,0.1,0.2,0.2c-1,2-0.7,4.4,1,6.2c1,1,2.4,1.6,3.7,1.6
	c1.4,0,2.8-0.6,3.7-1.6c2.1-2.1,2.1-5.4,0-7.6c-2.5-2.2-4.9-1.7-6.2-1l-2.9-2.9C34.4,28.9,35.1,27.4,35.4,25.7z"/>
</svg>
