<?xml version="1.0" encoding="utf-8"?>
<!-- Generator: Adobe Illustrator 22.0.1, SVG Export Plug-In . SVG Version: 6.00 Build 0)  -->
<svg version="1.1" id="Layer_1" xmlns="http://www.w3.org/2000/svg" xmlns:xlink="http://www.w3.org/1999/xlink" x="0px" y="0px"
	 viewBox="0 0 48 48" style="enable-background:new 0 0 48 48;" xml:space="preserve">
<g>
	<path d="M16.6,32.4v6.9c0,0.9-0.7,1.6-1.6,1.6H8.5c-0.9,0-1.6-0.7-1.6-1.6v-7.4H2c-0.9,0-1.6-0.7-1.6-1.6V13.9
		c0-0.9,0.7-1.6,1.6-1.6h6.5l0,0c4.2,0,8.5-0.5,12.5-1.2c4.7-0.9,9.2-2.2,13.1-3.7c0.9-0.3,1.8,0.2,2.1,1.1c0.1,0.1,0.1,0.3,0.1,0.5
		l0,0v26.1c0,0.9-0.7,1.6-1.6,1.6c-0.3,0-0.5-0.1-0.7-0.1c-3.8-1.4-8.3-2.8-12.9-3.6C19.5,32.9,18.1,32.6,16.6,32.4z M45.5,12.5
		c0.9-0.3,1.8,0.3,2,1.2c0.3,0.9-0.3,1.8-1.2,2l-4.6,1.2c-0.9,0.3-1.8-0.3-2-1.2c-0.2-0.9,0.3-1.8,1.2-2
		C40.7,13.7,45.5,12.5,45.5,12.5z M46.3,28.5c0.9,0.3,1.4,1.1,1.2,2c-0.2,0.9-1.1,1.4-2,1.2l-4.8-1.3c-0.9-0.2-1.4-1.1-1.2-2
		c0.3-0.9,1.2-1.4,2-1.2L46.3,28.5z M46,20.4c0.9,0,1.6,0.7,1.6,1.6s-0.7,1.7-1.6,1.7h-4.8c-0.9,0-1.7-0.7-1.7-1.6s0.8-1.6,1.7-1.6
		L46,20.4L46,20.4z M6.8,28.6V15.5H3.5v13.1H6.8z M10,31.9v5.6h3.3V32C12.2,32,11.1,31.9,10,31.9z M21.5,14.2
		c-3.7,0.7-7.5,1.2-11.4,1.3v13.1c3.9,0.1,7.8,0.6,11.4,1.2c4,0.8,7.9,1.8,11.4,3V11.3C29.4,12.5,25.6,13.5,21.5,14.2z"/>
</g>
</svg>
